<svg xmlns="http://www.w3.org/2000/svg" xmlns:xlink="http://www.w3.org/1999/xlink" width="500" zoomAndPan="magnify" viewBox="0 0 375 374.999991" height="500" preserveAspectRatio="xMidYMid meet" version="1.0"><defs><g/></defs><g fill="#e4e2dd" fill-opacity="1"><g transform="translate(48.591282, 195.224298)"><g><path d="M 17.546875 -0.625 C 16.003906 -0.90625 14.285156 -1.238281 12.390625 -1.625 C 10.503906 -2.007812 8.71875 -2.585938 7.03125 -3.359375 C 5.351562 -4.128906 4.023438 -5.21875 3.046875 -6.625 C 1.710938 -8.582031 1.222656 -10.363281 1.578125 -11.96875 C 1.929688 -13.582031 2.859375 -14.878906 4.359375 -15.859375 C 5.867188 -16.847656 7.640625 -17.304688 9.671875 -17.234375 C 10.929688 -17.234375 12.332031 -16.953125 13.875 -16.390625 C 15.414062 -15.828125 16.972656 -15.300781 18.546875 -14.8125 C 20.117188 -14.320312 21.601562 -14.195312 23 -14.4375 C 24.40625 -14.6875 25.597656 -15.65625 26.578125 -17.34375 C 27.703125 -19.15625 27.859375 -20.78125 27.046875 -22.21875 C 26.242188 -23.65625 25.054688 -24.878906 23.484375 -25.890625 C 21.910156 -26.910156 20.457031 -27.738281 19.125 -28.375 C 13.800781 -30.96875 9.894531 -34.414062 7.40625 -38.71875 C 4.914062 -43.03125 4.09375 -48.195312 4.9375 -54.21875 C 5.78125 -60.238281 8.195312 -65.4375 12.1875 -69.8125 C 16.175781 -74.195312 21.046875 -77.195312 26.796875 -78.8125 C 29.597656 -79.644531 32.660156 -80.097656 35.984375 -80.171875 C 39.316406 -80.242188 42.28125 -79.472656 44.875 -77.859375 C 46.34375 -76.953125 47.460938 -75.707031 48.234375 -74.125 C 49.003906 -72.550781 49.195312 -71.007812 48.8125 -69.5 C 48.425781 -68 47.144531 -66.898438 44.96875 -66.203125 C 42.726562 -65.503906 40.46875 -64.539062 38.1875 -63.3125 C 35.914062 -62.082031 33.90625 -60.660156 32.15625 -59.046875 C 30.40625 -57.441406 29.144531 -55.675781 28.375 -53.75 C 27.601562 -51.820312 27.53125 -49.804688 28.15625 -47.703125 C 28.789062 -45.597656 30.40625 -43.460938 33 -41.296875 C 34.601562 -39.890625 36.242188 -38.609375 37.921875 -37.453125 C 39.609375 -36.304688 41.1875 -35.046875 42.65625 -33.671875 C 44.132812 -32.304688 45.328125 -30.570312 46.234375 -28.46875 C 47.421875 -25.882812 48.066406 -23.066406 48.171875 -20.015625 C 48.285156 -16.972656 47.78125 -14.117188 46.65625 -11.453125 C 45.46875 -8.578125 43.785156 -6.300781 41.609375 -4.625 C 39.441406 -2.945312 37.007812 -1.753906 34.3125 -1.046875 C 31.613281 -0.347656 28.828125 0 25.953125 0 C 23.078125 0 20.273438 -0.207031 17.546875 -0.625 Z M 17.546875 -0.625 "/></g></g></g><g fill="#e4e2dd" fill-opacity="1"><g transform="translate(93.1408, 195.224298)"><g><path d="M 33.515625 -0.109375 C 32.328125 -0.390625 31.414062 -1.070312 30.78125 -2.15625 C 30.15625 -3.238281 29.71875 -4.5 29.46875 -5.9375 C 29.226562 -7.375 29.070312 -8.773438 29 -10.140625 C 28.925781 -11.503906 28.890625 -12.609375 28.890625 -13.453125 C 27.421875 -11.421875 25.546875 -9.6875 23.265625 -8.25 C 20.992188 -6.8125 18.613281 -5.898438 16.125 -5.515625 C 13.644531 -5.128906 11.316406 -5.425781 9.140625 -6.40625 C 6.972656 -7.382812 5.1875 -9.242188 3.78125 -11.984375 C 2.445312 -14.785156 1.726562 -17.796875 1.625 -21.015625 C 1.519531 -24.234375 1.921875 -27.4375 2.828125 -30.625 C 3.742188 -33.8125 4.972656 -36.632812 6.515625 -39.09375 C 7.984375 -41.332031 9.769531 -43.328125 11.875 -45.078125 C 13.976562 -46.828125 16.253906 -48.066406 18.703125 -48.796875 C 21.148438 -49.535156 23.53125 -49.535156 25.84375 -48.796875 C 28.15625 -48.066406 30.257812 -46.375 32.15625 -43.71875 C 33.269531 -42.175781 34.195312 -40.804688 34.9375 -39.609375 C 35.675781 -38.421875 36.238281 -37.160156 36.625 -35.828125 C 37.007812 -34.492188 37.234375 -32.8125 37.296875 -30.78125 L 37.9375 -11.03125 C 37.9375 -10.257812 37.96875 -9.207031 38.03125 -7.875 C 38.101562 -6.550781 38.050781 -5.238281 37.875 -3.9375 C 37.707031 -2.644531 37.289062 -1.613281 36.625 -0.84375 C 35.957031 -0.0703125 34.921875 0.171875 33.515625 -0.109375 Z M 20.171875 -23.859375 C 21.015625 -23.859375 21.890625 -24.328125 22.796875 -25.265625 C 23.710938 -26.210938 24.535156 -27.265625 25.265625 -28.421875 C 26.003906 -29.578125 26.476562 -30.472656 26.6875 -31.109375 C 27.382812 -32.648438 27.472656 -34.015625 26.953125 -35.203125 C 26.429688 -36.390625 25.328125 -36.632812 23.640625 -35.9375 C 22.523438 -35.519531 21.441406 -34.539062 20.390625 -33 C 19.335938 -31.457031 18.597656 -30.125 18.171875 -29 C 17.828125 -27.882812 17.6875 -26.765625 17.75 -25.640625 C 17.820312 -24.515625 18.628906 -23.921875 20.171875 -23.859375 Z M 20.171875 -23.859375 "/></g></g></g><g fill="#e4e2dd" fill-opacity="1"><g transform="translate(126.868076, 195.224298)"><g><path d="M 40.765625 7.25 C 39.222656 5.425781 38.050781 3.21875 37.25 0.625 C 36.445312 -1.957031 35.832031 -4.597656 35.40625 -7.296875 C 34.988281 -9.992188 34.570312 -12.46875 34.15625 -14.71875 C 33.875 -16.1875 33.519531 -17.691406 33.09375 -19.234375 C 32.675781 -20.773438 31.992188 -22.035156 31.046875 -23.015625 C 30.097656 -23.992188 28.644531 -24.378906 26.6875 -24.171875 C 25.070312 -24.023438 23.597656 -23.460938 22.265625 -22.484375 C 20.941406 -21.503906 19.71875 -20.453125 18.59375 -19.328125 C 17.050781 -17.929688 16.226562 -16.722656 16.125 -15.703125 C 16.019531 -14.691406 15.96875 -13.207031 15.96875 -11.25 C 15.894531 -9.84375 15.648438 -8.28125 15.234375 -6.5625 C 14.816406 -4.851562 14.1875 -3.382812 13.34375 -2.15625 C 12.5 -0.925781 11.445312 -0.238281 10.1875 -0.09375 C 8.925781 0.0390625 7.457031 -0.765625 5.78125 -2.515625 C 4.164062 -4.203125 3.0625 -6.320312 2.46875 -8.875 C 1.875 -11.4375 1.59375 -14.082031 1.625 -16.8125 C 1.664062 -19.539062 1.753906 -21.957031 1.890625 -24.0625 C 2.035156 -26.375 2.296875 -28.828125 2.671875 -31.421875 C 3.054688 -34.015625 3.6875 -36.535156 4.5625 -38.984375 C 5.445312 -41.429688 6.691406 -43.53125 8.296875 -45.28125 C 9.773438 -46.894531 11.019531 -47.679688 12.03125 -47.640625 C 13.050781 -47.609375 13.910156 -47.066406 14.609375 -46.015625 C 15.304688 -44.972656 15.847656 -43.679688 16.234375 -42.140625 C 16.617188 -40.597656 16.898438 -39.035156 17.078125 -37.453125 C 17.253906 -35.878906 17.34375 -34.601562 17.34375 -33.625 C 19.4375 -35.65625 21.707031 -37.28125 24.15625 -38.5 C 26.613281 -39.726562 29.066406 -40.410156 31.515625 -40.546875 C 33.972656 -40.691406 36.269531 -40.113281 38.40625 -38.8125 C 40.539062 -37.519531 42.3125 -35.367188 43.71875 -32.359375 C 45.257812 -29.066406 46.414062 -25.476562 47.1875 -21.59375 C 47.957031 -17.707031 48.476562 -13.800781 48.75 -9.875 C 49.03125 -5.957031 49.171875 -2.210938 49.171875 1.359375 C 49.171875 2.691406 48.976562 4.039062 48.59375 5.40625 C 48.207031 6.769531 47.664062 7.875 46.96875 8.71875 C 46.269531 9.5625 45.394531 9.929688 44.34375 9.828125 C 43.289062 9.722656 42.097656 8.863281 40.765625 7.25 Z M 40.765625 7.25 "/></g></g></g><g fill="#e4e2dd" fill-opacity="1"><g transform="translate(171.627735, 195.224298)"><g><path d="M 14.8125 -50.859375 C 13.976562 -52.398438 13.695312 -53.90625 13.96875 -55.375 C 14.25 -56.84375 14.878906 -58.03125 15.859375 -58.9375 C 16.847656 -59.851562 17.988281 -60.238281 19.28125 -60.09375 C 20.570312 -59.957031 21.816406 -59.050781 23.015625 -57.375 C 24.203125 -55.6875 24.640625 -54.070312 24.328125 -52.53125 C 24.015625 -51 23.296875 -49.789062 22.171875 -48.90625 C 21.046875 -48.03125 19.78125 -47.679688 18.375 -47.859375 C 16.976562 -48.035156 15.789062 -49.035156 14.8125 -50.859375 Z M 25.015625 43.5 C 23.535156 45.457031 21.691406 46.890625 19.484375 47.796875 C 17.285156 48.710938 14.992188 49.117188 12.609375 49.015625 C 10.222656 48.910156 8.015625 48.28125 5.984375 47.125 C 3.953125 45.96875 2.410156 44.335938 1.359375 42.234375 C -0.390625 38.804688 -1.347656 35.203125 -1.515625 31.421875 C -1.691406 27.640625 -1.253906 23.820312 -0.203125 19.96875 C 0.835938 16.113281 2.285156 12.347656 4.140625 8.671875 C 6.003906 4.992188 8.070312 1.546875 10.34375 -1.671875 C 12.625 -4.898438 14.921875 -7.707031 17.234375 -10.09375 C 18.003906 -10.925781 18.632812 -11.601562 19.125 -12.125 C 19.613281 -12.65625 19.925781 -13.484375 20.0625 -14.609375 C 20.28125 -15.941406 20.085938 -17.550781 19.484375 -19.4375 C 18.890625 -21.332031 18.453125 -22.910156 18.171875 -24.171875 C 17.898438 -25.773438 17.570312 -27.554688 17.1875 -29.515625 C 16.800781 -31.484375 16.957031 -33.203125 17.65625 -34.671875 C 18.351562 -36.078125 19.503906 -37.023438 21.109375 -37.515625 C 22.722656 -38.003906 24.351562 -38.085938 26 -37.765625 C 27.644531 -37.453125 28.820312 -36.703125 29.53125 -35.515625 C 30.789062 -33.617188 31.5625 -31.460938 31.84375 -29.046875 C 32.125 -26.628906 32.398438 -24.335938 32.671875 -22.171875 C 33.585938 -22.941406 34.796875 -23.90625 36.296875 -25.0625 C 37.804688 -26.21875 39.488281 -27.40625 41.34375 -28.625 C 43.207031 -29.851562 45.082031 -30.90625 46.96875 -31.78125 C 48.863281 -32.65625 50.6875 -33.144531 52.4375 -33.25 C 54.1875 -33.363281 55.726562 -32.894531 57.0625 -31.84375 C 58.113281 -31 58.285156 -29.859375 57.578125 -28.421875 C 56.878906 -26.984375 55.632812 -25.441406 53.84375 -23.796875 C 52.0625 -22.148438 50.132812 -20.519531 48.0625 -18.90625 C 46 -17.300781 44.09375 -15.882812 42.34375 -14.65625 C 40.59375 -13.425781 39.4375 -12.535156 38.875 -11.984375 C 37.613281 -10.859375 36.546875 -9.835938 35.671875 -8.921875 C 34.796875 -8.015625 34.21875 -6.757812 33.9375 -5.15625 C 33.863281 -4.3125 33.863281 -3.429688 33.9375 -2.515625 C 34.007812 -1.609375 34.046875 -0.734375 34.046875 0.109375 C 34.117188 2.703125 34.117188 5.328125 34.046875 7.984375 C 33.972656 10.648438 33.796875 13.3125 33.515625 15.96875 C 33.023438 20.59375 32.203125 25.375 31.046875 30.3125 C 29.890625 35.25 27.878906 39.644531 25.015625 43.5 Z M 9.875 36.875 C 10.71875 38 11.523438 38.472656 12.296875 38.296875 C 13.066406 38.117188 13.785156 37.554688 14.453125 36.609375 C 15.117188 35.671875 15.675781 34.65625 16.125 33.5625 C 16.582031 32.476562 16.914062 31.585938 17.125 30.890625 C 18.382812 27.316406 19.257812 23.65625 19.75 19.90625 C 20.238281 16.164062 20.554688 12.4375 20.703125 8.71875 C 20.703125 7.945312 20.71875 7.191406 20.75 6.453125 C 20.789062 5.722656 20.8125 5.007812 20.8125 4.3125 C 18.351562 7.320312 16.070312 10.507812 13.96875 13.875 C 11.875 17.238281 10.40625 20.84375 9.5625 24.6875 C 9.351562 25.601562 9.140625 26.847656 8.921875 28.421875 C 8.710938 29.992188 8.660156 31.566406 8.765625 33.140625 C 8.878906 34.722656 9.25 35.96875 9.875 36.875 Z M 9.875 36.875 "/></g></g></g><g fill="#e4e2dd" fill-opacity="1"><g transform="translate(223.532181, 195.224298)"><g><path d="M 14.078125 -4.734375 C 10.785156 -5.285156 8.175781 -6.578125 6.25 -8.609375 C 4.320312 -10.640625 3.007812 -13.09375 2.3125 -15.96875 C 1.613281 -18.84375 1.421875 -21.851562 1.734375 -25 C 2.046875 -28.15625 2.796875 -31.148438 3.984375 -33.984375 C 5.179688 -36.828125 6.691406 -39.226562 8.515625 -41.1875 C 10.828125 -43.644531 13.75 -45.46875 17.28125 -46.65625 C 20.820312 -47.84375 24.273438 -47.945312 27.640625 -46.96875 C 29.390625 -46.476562 31 -45.582031 32.46875 -44.28125 C 33.9375 -42.988281 35.09375 -41.5 35.9375 -39.8125 C 36.78125 -38.132812 37.128906 -36.398438 36.984375 -34.609375 C 36.847656 -32.828125 36.078125 -31.132812 34.671875 -29.53125 C 33.335938 -28.0625 31.691406 -26.972656 29.734375 -26.265625 C 27.773438 -25.566406 25.847656 -25.039062 23.953125 -24.6875 C 22.691406 -24.476562 21.394531 -24.335938 20.0625 -24.265625 C 18.738281 -24.203125 17.601562 -23.867188 16.65625 -23.265625 C 15.707031 -22.671875 15.164062 -21.46875 15.03125 -19.65625 C 14.882812 -17.757812 15.175781 -16.597656 15.90625 -16.171875 C 16.644531 -15.753906 17.59375 -15.804688 18.75 -16.328125 C 19.90625 -16.859375 21.113281 -17.578125 22.375 -18.484375 C 23.632812 -19.398438 24.789062 -20.273438 25.84375 -21.109375 C 26.894531 -21.953125 27.632812 -22.484375 28.0625 -22.703125 C 30.300781 -23.679688 31.910156 -23.75 32.890625 -22.90625 C 33.867188 -22.0625 34.394531 -20.78125 34.46875 -19.0625 C 34.539062 -17.351562 34.273438 -15.625 33.671875 -13.875 C 33.078125 -12.125 32.328125 -10.789062 31.421875 -9.875 C 29.242188 -7.707031 26.5625 -6.1875 23.375 -5.3125 C 20.1875 -4.4375 17.085938 -4.242188 14.078125 -4.734375 Z M 21.015625 -31.3125 C 21.710938 -31.101562 22.617188 -31.117188 23.734375 -31.359375 C 24.859375 -31.609375 25.804688 -32.03125 26.578125 -32.625 C 27.347656 -33.21875 27.5625 -33.867188 27.21875 -34.578125 C 25.882812 -34.785156 24.65625 -34.609375 23.53125 -34.046875 C 22.414062 -33.484375 21.578125 -32.570312 21.015625 -31.3125 Z M 21.015625 -31.3125 "/></g></g></g><g fill="#e4e2dd" fill-opacity="1"><g transform="translate(256.103689, 195.224298)"><g><path d="M 14.078125 -4.734375 C 10.785156 -5.285156 8.175781 -6.578125 6.25 -8.609375 C 4.320312 -10.640625 3.007812 -13.09375 2.3125 -15.96875 C 1.613281 -18.84375 1.421875 -21.851562 1.734375 -25 C 2.046875 -28.15625 2.796875 -31.148438 3.984375 -33.984375 C 5.179688 -36.828125 6.691406 -39.226562 8.515625 -41.1875 C 10.828125 -43.644531 13.75 -45.46875 17.28125 -46.65625 C 20.820312 -47.84375 24.273438 -47.945312 27.640625 -46.96875 C 29.390625 -46.476562 31 -45.582031 32.46875 -44.28125 C 33.9375 -42.988281 35.09375 -41.5 35.9375 -39.8125 C 36.78125 -38.132812 37.128906 -36.398438 36.984375 -34.609375 C 36.847656 -32.828125 36.078125 -31.132812 34.671875 -29.53125 C 33.335938 -28.0625 31.691406 -26.972656 29.734375 -26.265625 C 27.773438 -25.566406 25.847656 -25.039062 23.953125 -24.6875 C 22.691406 -24.476562 21.394531 -24.335938 20.0625 -24.265625 C 18.738281 -24.203125 17.601562 -23.867188 16.65625 -23.265625 C 15.707031 -22.671875 15.164062 -21.46875 15.03125 -19.65625 C 14.882812 -17.757812 15.175781 -16.597656 15.90625 -16.171875 C 16.644531 -15.753906 17.59375 -15.804688 18.75 -16.328125 C 19.90625 -16.859375 21.113281 -17.578125 22.375 -18.484375 C 23.632812 -19.398438 24.789062 -20.273438 25.84375 -21.109375 C 26.894531 -21.953125 27.632812 -22.484375 28.0625 -22.703125 C 30.300781 -23.679688 31.910156 -23.75 32.890625 -22.90625 C 33.867188 -22.0625 34.394531 -20.78125 34.46875 -19.0625 C 34.539062 -17.351562 34.273438 -15.625 33.671875 -13.875 C 33.078125 -12.125 32.328125 -10.789062 31.421875 -9.875 C 29.242188 -7.707031 26.5625 -6.1875 23.375 -5.3125 C 20.1875 -4.4375 17.085938 -4.242188 14.078125 -4.734375 Z M 21.015625 -31.3125 C 21.710938 -31.101562 22.617188 -31.117188 23.734375 -31.359375 C 24.859375 -31.609375 25.804688 -32.03125 26.578125 -32.625 C 27.347656 -33.21875 27.5625 -33.867188 27.21875 -34.578125 C 25.882812 -34.785156 24.65625 -34.609375 23.53125 -34.046875 C 22.414062 -33.484375 21.578125 -32.570312 21.015625 -31.3125 Z M 21.015625 -31.3125 "/></g></g></g><g fill="#e4e2dd" fill-opacity="1"><g transform="translate(288.675197, 195.224298)"><g><path d="M 16.8125 -0.421875 C 14.914062 -1.046875 13.375 -2.21875 12.1875 -3.9375 C 11 -5.65625 10.070312 -7.53125 9.40625 -9.5625 C 8.738281 -11.59375 8.125 -13.484375 7.5625 -15.234375 C 7.144531 -16.703125 6.5 -18.820312 5.625 -21.59375 C 4.75 -24.363281 3.925781 -27.410156 3.15625 -30.734375 C 2.382812 -34.066406 1.875 -37.320312 1.625 -40.5 C 1.382812 -43.6875 1.628906 -46.472656 2.359375 -48.859375 C 3.097656 -51.242188 4.550781 -52.851562 6.71875 -53.6875 C 8.75 -54.457031 10.550781 -54.140625 12.125 -52.734375 C 13.707031 -51.335938 15.078125 -49.34375 16.234375 -46.75 C 17.390625 -44.164062 18.367188 -41.382812 19.171875 -38.40625 C 19.984375 -35.425781 20.648438 -32.675781 21.171875 -30.15625 C 21.703125 -27.632812 22.101562 -25.8125 22.375 -24.6875 C 22.445312 -25.113281 22.570312 -26.148438 22.75 -27.796875 C 22.925781 -29.441406 23.222656 -31.382812 23.640625 -33.625 C 24.054688 -35.863281 24.5625 -38.117188 25.15625 -40.390625 C 25.757812 -42.671875 26.5 -44.632812 27.375 -46.28125 C 28.25 -47.925781 29.28125 -48.957031 30.46875 -49.375 C 31.664062 -49.800781 33 -49.316406 34.46875 -47.921875 C 35.375 -47.078125 35.894531 -45.847656 36.03125 -44.234375 C 36.175781 -42.628906 36.109375 -40.894531 35.828125 -39.03125 C 35.546875 -37.175781 35.195312 -35.425781 34.78125 -33.78125 C 34.363281 -32.132812 34.046875 -30.785156 33.828125 -29.734375 C 33.054688 -26.304688 32.160156 -22.835938 31.140625 -19.328125 C 30.128906 -15.828125 28.992188 -12.394531 27.734375 -9.03125 C 27.179688 -7.488281 26.429688 -5.929688 25.484375 -4.359375 C 24.535156 -2.785156 23.359375 -1.578125 21.953125 -0.734375 C 20.554688 0.109375 18.84375 0.210938 16.8125 -0.421875 Z M 16.8125 -0.421875 "/></g></g></g></svg>